<svg width="574" height="305" viewBox="0 0 574 305" fill="none" xmlns="http://www.w3.org/2000/svg">
<path fill-rule="evenodd" clip-rule="evenodd" d="M452.394 158.887V250.991C452.517 260.676 446.672 269.431 437.696 273.026C389.639 292.542 338.498 303.353 286.677 304.942C234.854 303.352 183.717 292.542 135.659 273.026C126.683 269.431 120.838 260.675 120.96 250.991V158.887L266.525 205.722C279.609 209.977 293.746 209.977 306.83 205.722L452.394 158.887ZM52.1368 198.262C45.9248 201.075 41.7181 206.993 41.1314 213.793C40.5445 220.567 43.6749 227.146 49.3244 230.961C44.2619 234.507 41.303 240.352 41.3762 246.54V286.991C41.3762 291.589 45.0936 295.33 49.6913 295.379H71.2375C75.8353 295.33 79.577 291.588 79.577 286.991V246.54C79.6259 240.377 76.6422 234.581 71.6043 231.01C77.0826 227.097 80.091 220.591 79.5037 213.89C78.9412 207.189 74.9058 201.271 68.8652 198.336V124.821L271.661 190.19C281.395 193.443 291.96 193.443 301.694 190.19L565.602 105.23C569.907 104.325 573.061 100.657 573.355 96.2791C573.062 91.9259 569.882 88.3066 565.602 87.4501L301.694 2.68411C291.936 -0.519703 281.419 -0.519703 271.661 2.68411L7.75284 87.5252C3.49739 88.3812 0.318052 91.9518 0 96.2804C0.317933 100.634 3.47285 104.253 7.75284 105.183L52.1412 119.392L52.1368 198.262Z" fill="#3DCCFC"/>
</svg>
