<svg width="1804" height="330" viewBox="0 0 1804 330" fill="none" xmlns="http://www.w3.org/2000/svg">
<path fill-rule="evenodd" clip-rule="evenodd" d="M452.394 172.887V264.991C452.517 274.676 446.672 283.431 437.696 287.026C389.639 306.542 338.498 317.353 286.677 318.942C234.854 317.352 183.717 306.542 135.659 287.026C126.683 283.431 120.838 274.675 120.96 264.991V172.887L266.525 219.722C279.609 223.977 293.746 223.977 306.83 219.722L452.394 172.887ZM52.1368 212.262C45.9248 215.075 41.7181 220.993 41.1314 227.793C40.5445 234.567 43.6749 241.146 49.3244 244.961C44.2619 248.507 41.303 254.352 41.3762 260.54V300.991C41.3762 305.589 45.0936 309.33 49.6913 309.379H71.2375C75.8353 309.33 79.577 305.588 79.577 300.991V260.54C79.6259 254.377 76.6422 248.581 71.6043 245.01C77.0826 241.097 80.091 234.591 79.5037 227.89C78.9412 221.189 74.9058 215.271 68.8652 212.336V138.821L271.661 204.19C281.395 207.443 291.96 207.443 301.694 204.19L565.602 119.23C569.907 118.325 573.061 114.657 573.355 110.279C573.062 105.926 569.882 102.307 565.602 101.45L301.694 16.6841C291.936 13.4803 281.419 13.4803 271.661 16.6841L7.75284 101.525C3.49739 102.381 0.318052 105.952 0 110.28C0.317933 114.634 3.47285 118.253 7.75284 119.183L52.1412 133.392L52.1368 212.262Z" fill="#3DCCFC"/>
<path d="M631.022 187.609C631.022 175.909 633.582 165.489 638.7 156.349C643.819 147.209 650.583 139.988 658.992 134.686C667.401 129.385 676.45 125.455 686.139 122.895C695.827 120.153 705.699 118.782 715.753 118.782C733.668 118.782 747.561 122.713 757.433 130.573C767.304 138.251 772.24 147.757 772.24 159.091C772.24 171.339 766.482 181.759 754.965 190.351C743.448 198.943 727.087 203.239 705.882 203.239C686.87 203.239 668.772 200.497 651.588 195.012C653.599 208.54 659.906 219.874 670.509 229.014C681.111 238.155 694.182 242.725 709.721 242.725C717.947 242.725 726.447 241.445 735.222 238.886C744.179 236.327 751.217 232.67 756.336 227.918C757.067 226.455 758.53 225.724 760.723 225.724C763.283 225.724 766.025 226.912 768.95 229.289C771.875 231.482 773.337 233.767 773.337 236.144C768.767 245.467 759.809 252.322 746.465 256.709C733.302 260.914 720.506 263.016 708.075 263.016C685.59 263.016 667.127 255.613 652.685 240.805C638.243 225.998 631.022 208.266 631.022 187.609ZM652.685 173.898C666.395 179.931 683.396 182.947 703.688 182.947C719.592 182.947 731.657 180.479 739.884 175.544C748.11 170.425 752.223 164.758 752.223 158.543C752.223 153.058 748.75 148.488 741.803 144.832C735.039 140.993 724.893 139.074 711.366 139.074C696.741 139.074 684.493 142.364 674.622 148.945C664.933 155.344 657.621 163.661 652.685 173.898ZM794.37 210.094C794.37 185.598 803.967 164.484 823.162 146.752C842.356 129.019 864.11 120.153 888.423 120.153C903.596 120.153 916.85 125.546 928.184 136.332V61.4726C928.184 56.7196 931.474 54.3432 938.055 54.3432C945.002 54.3432 948.475 56.7196 948.475 61.4726V252.322C948.475 257.441 945.093 260 938.33 260C935.587 260 933.211 259.36 931.2 258.081C929.189 256.618 928.184 254.699 928.184 252.322V207.626C913.376 226.821 899.209 240.714 885.681 249.306C872.337 257.898 858.535 262.194 844.276 262.194C831.114 262.194 819.506 256.892 809.451 246.29C799.397 235.504 794.37 223.439 794.37 210.094ZM814.113 210.642C814.113 221.062 817.769 229.014 825.081 234.499C832.393 239.8 840.163 242.451 848.389 242.451C857.895 242.451 868.772 237.789 881.02 228.466C893.268 218.96 903.414 208.449 911.457 196.932C919.683 185.232 923.796 176.092 923.796 169.511C923.796 164.027 922.151 159.182 918.861 154.978C915.753 150.591 911.823 147.391 907.07 145.381C902.5 143.37 898.295 141.907 894.456 140.993C890.617 139.896 887.418 139.348 884.859 139.348C866.944 139.348 850.674 146.569 836.05 161.011C821.425 175.269 814.113 191.813 814.113 210.642Z" fill="white"/>
<path d="M984.988 252.322V75.4573C984.988 70.5215 988.461 68.0536 995.408 68.0536C998.15 68.0536 1000.44 68.6934 1002.26 69.9731C1004.27 71.2527 1005.28 73.0808 1005.28 75.4573V89.9904C1018.44 75.1831 1035.08 67.7794 1055.19 67.7794C1068.71 67.7794 1080.32 71.4355 1090.01 78.7478C1099.7 86.06 1104.54 96.2057 1104.54 109.185C1104.54 117.228 1102.35 125.272 1097.96 133.315C1093.76 141.176 1087.09 146.569 1077.94 149.494C1095.31 152.236 1108.56 158.725 1117.71 168.963C1127.03 179.2 1131.69 190.168 1131.69 201.868C1131.69 219.965 1125.84 234.956 1114.14 246.838C1102.44 258.72 1084.16 264.662 1059.3 264.662C1037.91 264.662 1019.72 261.462 1004.73 255.064C1003.09 258.355 999.887 260 995.134 260C988.37 260 984.988 257.441 984.988 252.322ZM1005.28 235.047C1016.98 241.262 1034.07 244.37 1056.56 244.37C1075.2 244.37 1089 240.623 1097.96 233.128C1106.92 225.45 1111.4 216.035 1111.4 204.884C1111.4 191.905 1105.82 182.216 1094.67 175.818C1083.52 169.237 1068.8 165.946 1050.52 165.946C1044.86 165.946 1036.72 166.129 1026.12 166.495C1015.52 166.677 1008.57 166.769 1005.28 166.769V235.047ZM1005.28 144.558C1012.59 145.472 1020.73 145.929 1029.68 145.929C1046.87 145.929 1060.21 142.456 1069.72 135.509C1079.41 128.38 1084.25 120.062 1084.25 110.556C1084.25 102.695 1081.6 96.8456 1076.3 93.0066C1071 89.1677 1063.96 87.2482 1055.19 87.2482C1044.95 87.2482 1035.35 89.7161 1026.39 94.6519C1017.44 99.5877 1010.4 107.266 1005.28 117.685V144.558ZM1155.7 204.061C1155.7 202.416 1155.7 194.281 1155.7 179.657C1155.89 164.849 1155.98 148.488 1155.98 130.573C1155.98 128.197 1156.98 126.369 1158.99 125.089C1161.01 123.627 1163.38 122.895 1166.12 122.895C1172.89 122.895 1176.27 125.455 1176.27 130.573V201.593C1176.27 214.573 1180.84 224.718 1189.98 232.031C1199.3 239.16 1208.9 242.725 1218.77 242.725C1231.2 242.725 1244.46 238.246 1258.53 229.289C1272.79 220.148 1282.66 208.814 1288.15 195.287V130.299C1288.15 125.363 1291.62 122.895 1298.57 122.895C1301.31 122.895 1303.59 123.535 1305.42 124.815C1307.43 126.095 1308.44 127.923 1308.44 130.299V252.596C1308.44 254.973 1307.43 256.801 1305.42 258.081C1303.59 259.36 1301.31 260 1298.57 260C1291.62 260 1288.15 257.532 1288.15 252.596V230.111C1279.01 240.166 1268.04 248.118 1255.24 253.967C1242.63 259.817 1229.65 262.742 1216.3 262.742C1199.12 262.742 1184.68 257.258 1172.98 246.29C1161.46 235.321 1155.7 221.245 1155.7 204.061ZM1335.29 191.996C1335.29 176.275 1339.49 162.747 1347.9 151.413C1356.31 139.896 1366.46 131.579 1378.34 126.46C1390.22 121.342 1402.65 118.782 1415.63 118.782C1432.09 118.782 1447.35 124.449 1461.43 135.783C1462.89 137.063 1463.62 138.708 1463.62 140.719C1463.62 143.644 1462.43 146.386 1460.06 148.945C1457.68 151.322 1455.21 152.51 1452.65 152.51C1450.82 152.51 1449.27 151.87 1447.99 150.591C1439.22 142.913 1428.25 139.074 1415.08 139.074C1396.44 139.074 1381.81 144.741 1371.21 156.075C1360.79 167.409 1355.58 179.474 1355.58 192.27C1355.58 205.25 1361.61 217.132 1373.68 227.918C1385.74 238.52 1399.64 243.822 1415.36 243.822C1431.45 243.822 1444.52 238.063 1454.57 226.546C1456.58 224.536 1458.32 223.53 1459.78 223.53C1462.52 223.53 1465.17 224.901 1467.73 227.643C1470.29 230.385 1471.57 233.036 1471.57 235.595C1471.57 237.241 1470.93 238.703 1469.65 239.983C1455.58 256.07 1437.94 264.113 1416.73 264.113C1394.25 264.113 1375.05 257.075 1359.15 242.999C1343.24 228.74 1335.29 211.739 1335.29 191.996ZM1493.42 252.322V61.7468C1493.42 56.811 1496.9 54.3432 1503.84 54.3432C1506.59 54.3432 1508.87 54.983 1510.7 56.2626C1512.71 57.5423 1513.71 59.3703 1513.71 61.7468V178.834L1607.77 124.815C1609.78 123.535 1611.7 122.895 1613.53 122.895C1616.27 122.895 1618.46 124.266 1620.11 127.009C1621.94 129.568 1622.85 132.31 1622.85 135.235C1622.85 137.977 1622.12 139.805 1620.66 140.719L1558.96 176.092L1643.69 246.015C1644.42 247.295 1644.79 248.575 1644.79 249.854C1644.79 252.962 1642.96 255.613 1639.3 257.806C1636.93 259.269 1634.55 260 1632.17 260C1629.61 260 1627.6 258.903 1626.14 256.709L1540.04 187.06L1513.71 202.142V252.322C1513.71 254.699 1512.71 256.618 1510.7 258.081C1508.69 259.36 1506.31 260 1503.57 260C1496.8 260 1493.42 257.441 1493.42 252.322ZM1654.76 233.95C1654.76 231.574 1655.77 229.014 1657.78 226.272C1659.97 223.53 1662.44 221.794 1665.18 221.062C1666.46 221.062 1667.1 221.245 1667.1 221.611C1672.95 228.009 1681.36 233.036 1692.33 236.692C1703.3 240.166 1711.89 242.176 1718.1 242.725C1724.5 243.273 1730.44 243.547 1735.93 243.547C1759.69 243.547 1771.57 236.327 1771.57 221.885C1771.57 216.949 1769.75 213.019 1766.09 210.094C1762.62 206.986 1757.77 204.884 1751.56 203.787C1745.52 202.69 1739.4 201.959 1733.18 201.593C1726.97 201.228 1720.21 200.954 1712.89 200.771C1705.58 200.405 1700.01 199.857 1696.17 199.126C1685.75 197.115 1676.51 192.91 1668.47 186.512C1660.43 179.931 1656.41 172.253 1656.41 163.478C1656.41 149.585 1663.35 138.982 1677.25 131.67C1691.32 124.175 1706.77 120.428 1723.59 120.428C1734.92 120.428 1747.08 122.438 1760.06 126.46C1773.04 130.299 1782.73 136.332 1789.12 144.558C1789.31 144.924 1789.4 145.381 1789.4 145.929C1789.4 148.305 1788.3 151.139 1786.11 154.429C1783.91 157.537 1781.81 159.091 1779.8 159.091C1777.97 159.091 1776.14 157.629 1774.32 154.704C1765.54 145.381 1748.08 140.719 1721.94 140.719C1711.16 140.719 1700.92 142.547 1691.23 146.203C1681.54 149.859 1676.7 155.252 1676.7 162.382C1676.7 168.414 1680.9 172.984 1689.31 176.092C1697.72 179.017 1706.68 180.479 1716.18 180.479C1722.95 180.479 1728.61 180.571 1733.18 180.754C1737.75 180.936 1743.33 181.485 1749.91 182.399C1756.49 183.13 1761.98 184.501 1766.36 186.512C1770.75 188.34 1775.05 190.808 1779.25 193.916C1783.46 196.84 1786.56 200.862 1788.57 205.981C1790.77 210.917 1791.87 216.766 1791.87 223.53C1791.87 232.853 1788.94 240.714 1783.09 247.112C1777.42 253.328 1770.84 257.624 1763.35 260C1756.04 262.559 1748.27 263.839 1740.04 263.839C1701.47 263.839 1673.68 255.613 1656.68 239.16C1655.4 237.88 1654.76 236.144 1654.76 233.95Z" fill="#3DCCFC"/>
</svg>
